<?xml version="1.0" encoding="iso-8859-1"?>
<!-- Generator: Adobe Illustrator 19.0.0, SVG Export Plug-In . SVG Version: 6.00 Build 0)  -->
<svg xmlns="http://www.w3.org/2000/svg" xmlns:xlink="http://www.w3.org/1999/xlink" version="1.1" id="Layer_1" x="0px" y="0px" viewBox="0 0 488.5 488.5" style="enable-background:new 0 0 488.5 488.5;" xml:space="preserve" width="512px" height="512px">
<g>
	<g>
		<path d="M407.905,265.1h-8.6c-9-24.8-25-47.2-46.6-65.1c-0.1-0.4-0.2-0.7-0.3-1.1c-3.4-12-1-24.7,7.2-37.7    c3.5-5.5,3.4-12.3-0.1-17.8s-9.6-8.4-16.1-7.6c-29.6,3.7-46.6,17.6-56,29.8c-10.2-3-20.8-5.1-31.5-6.4c-3.3-0.4-6.3,2-6.7,5.2    c-0.4,3.3,2,6.3,5.2,6.7c11.4,1.4,22.7,3.8,33.5,7.2c2.5,0.8,5.3-0.2,6.8-2.4c7.4-11,22.1-24.8,50.2-28.3c2.6-0.3,4,1.4,4.5,2.1    s1.4,2.7,0,5c-9.9,15.8-12.9,32.2-8.6,47.4c0.1,0.4,0.2,0.8,0.2,1.2c0.1,1.7,0.9,3.4,2.2,4.5c22,17.7,37.9,40.3,46.1,65.2    c0.8,2.5,3.1,4.1,5.7,4.1h13c6.5,0,11.8,5.3,11.8,11.8v43.8c0,6.5-5.3,11.8-11.8,11.8h-12.3c-2.6,0-5,1.7-5.7,4.2    c-6.9,22.4-38.1,59.1-41.3,62.9l-2.3,2l-0.1,0.1c-19.7,17.8-21.7,38.7-21.8,44.6v0.1v14.5c0,2-1.6,3.6-3.6,3.6h-58.7    c-2,0-3.6-1.6-3.6-3.6v-13.8c0-1.7-0.7-3.3-2-4.5c-1.3-1.1-3-1.7-4.6-1.5c-15.1,1.6-30.3,1.3-45.1-0.6c-1.7-0.2-3.4,0.3-4.8,1.4    c-1.3,1.1-2.1,2.8-2.1,4.5v14.5c0,2-1.6,3.6-3.6,3.6h-58.7c-1.9,0-3.5-1.5-3.6-3.3v-0.1v-4.6c0-0.1,0-0.2,0-0.3    c-0.5-10.1-3.7-36-23.7-56.6c-10.3-10.6-19.5-24.5-27.3-41.3c0-0.1-0.1-0.2-0.1-0.2c-4.7-9-8.2-18.6-10.6-28.3c0-0.1,0-0.1,0-0.2    l-0.1-0.4c0-0.1,0-0.1-0.1-0.2c-3.9-12.8-3.4-28.7-3.4-28.9c0-0.1,0-0.1,0-0.2c0-6.9,0.6-13.9,1.7-20.7c0.5-3.3-1.7-6.4-4.9-6.9    c-3.3-0.5-6.4,1.7-6.9,4.9c-1.2,7.4-1.9,15-1.9,22.6c0,1.6-0.4,18.3,3.9,32.5l0.1,0.3c2.6,10.6,6.5,20.9,11.5,30.8    c8.4,18,18.3,33,29.5,44.5c17.1,17.6,19.9,39.8,20.4,48.7v4.2c0,0.3,0,0.5,0,0.9v0.2c0.5,8.2,7.4,14.6,15.6,14.6h58.7    c8.6,0,15.6-7,15.6-15.6v-7.8c11.4,1.1,22.9,1.3,34.5,0.5v7.3c0,8.6,7,15.6,15.6,15.6h58.7c8.6,0,15.6-7,15.6-15.6v-14.4    c0.1-3.5,1.4-21,17.8-35.9l2.5-2.2c0.2-0.2,0.4-0.4,0.6-0.6c1.4-1.6,32.4-37.5,42.5-63.3h8c13.1,0,23.8-10.7,23.8-23.8v-43.8    C431.705,275.8,421.005,265.1,407.905,265.1z" fill="#00ccf0"/>
	</g>
</g>
<g>
	<g>
		<path d="M136.105,111.3c-43.3,0-78.5,35.3-78.5,78.5c0,43.3,35.2,78.5,78.5,78.5c43.3,0,78.5-35.2,78.5-78.5    C214.605,146.5,179.405,111.3,136.105,111.3z M136.105,256.3c-36.7,0-66.5-29.8-66.5-66.5c0-36.7,29.8-66.5,66.5-66.5    c36.7,0,66.5,29.9,66.5,66.5C202.605,226.5,172.805,256.3,136.105,256.3z" fill="#00ccf0"/>
	</g>
</g>
<g>
	<g>
		<path d="M230.405,0c-29.5,0-53.5,24-53.5,53.5s23.9,53.5,53.5,53.5c29.5,0,53.5-24,53.5-53.5S259.905,0,230.405,0z M230.405,95    c-22.9,0-41.5-18.6-41.5-41.5c0-22.9,18.6-41.5,41.5-41.5c22.9,0,41.5,18.6,41.5,41.5C271.905,76.4,253.305,95,230.405,95z" fill="#00ccf0"/>
	</g>
</g>
<g>
</g>
<g>
</g>
<g>
</g>
<g>
</g>
<g>
</g>
<g>
</g>
<g>
</g>
<g>
</g>
<g>
</g>
<g>
</g>
<g>
</g>
<g>
</g>
<g>
</g>
<g>
</g>
<g>
</g>
</svg>
